<svg width="161" height="161" viewBox="0 0 161 161" fill="none" xmlns="http://www.w3.org/2000/svg">
<rect y="160" width="160" height="160" rx="25" transform="rotate(-89.9571 0 160)" fill="#00FFA3"/>
<path d="M36.2292 71.6875H111.29C118.873 71.6875 122.664 71.6875 125.019 73.9757C127.375 76.264 127.375 79.9468 127.375 87.3125V95.125C127.375 112.312 127.375 120.905 121.879 126.244C116.383 131.583 107.536 131.583 89.8444 131.583H73.7598C56.0677 131.583 47.2217 131.583 41.7254 126.244C36.2292 120.905 36.2292 112.312 36.2292 95.125V71.6875Z" fill="white" stroke="black" stroke-width="6"/>
<path d="M36.2202 71.6875C34.3603 64.6149 33.4304 61.0786 33.6591 57.9693C34.0687 52.4001 36.9449 47.3239 41.4735 44.1779C44.0019 42.4214 47.4724 41.4739 54.4134 39.5788L94.7296 28.5714C96.5246 28.0814 97.4222 27.8363 98.1966 27.6972C106.804 26.1507 115.259 31.1245 118.248 39.4934C118.517 40.2463 118.758 41.1608 119.239 42.9898C119.376 43.5124 119.445 43.7737 119.484 43.9992C119.917 46.505 118.523 48.9665 116.176 49.8368C115.965 49.9151 115.709 49.9851 115.196 50.1251L36.2202 71.6875Z" fill="white" stroke="black" stroke-width="6"/>
<path d="M54.4583 69.0833L64.875 37.8333" stroke="black" stroke-width="6"/>
<path d="M90.9167 58.6666L101.333 27.4166" stroke="black" stroke-width="6"/>
<path d="M59.6667 110.75H75.2917" stroke="black" stroke-width="6" stroke-linecap="round"/>
</svg>
