<svg width="287" height="65" viewBox="0 0 287 65" fill="none" xmlns="http://www.w3.org/2000/svg">
<g clip-path="url(#clip0_110_3)">
<path d="M91.1054 56.2687H71.7221V49.5863H77.1333V6.88418H71.399V0.201797H85.6942V49.5863H91.1054V56.2687ZM127.556 45.1042C127.233 48.3096 125.671 51.1075 122.872 53.4979C120.072 55.8884 116.222 57.0836 111.322 57.0836C106.046 57.0836 101.711 55.5352 98.3194 52.4385C94.9273 49.2875 93.2312 44.6696 93.2312 38.5848C93.2312 32.989 94.7657 28.3167 97.8348 24.5681C100.958 20.8194 105.292 18.9451 110.838 18.9451C115.845 18.9451 119.803 20.4663 122.71 23.5087C125.671 26.4967 127.179 30.2997 127.233 34.9176C127.233 36.4388 127.071 38.0687 126.748 39.8072H102.277C102.761 46.6525 105.992 50.0752 111.968 50.0752C114.768 50.0752 116.76 49.3961 117.945 48.0379C119.183 46.6797 119.991 45.24 120.368 43.7188L127.556 45.1042ZM118.349 34.4287C118.564 32.2555 118.053 30.2182 116.814 28.3167C115.63 26.3609 113.611 25.383 110.757 25.383C108.173 25.383 106.207 26.2522 104.861 27.9907C103.515 29.7293 102.681 31.8752 102.358 34.4287H118.349ZM169.435 56.2687H152.071V49.5863H155.543L149.002 42.089L142.54 49.5863H145.609V56.2687H129.376V49.5863H134.383L144.883 38.1773L133.737 26.3609H129.618V19.6785H147.305V26.3609H143.913L149.971 33.6952L156.432 26.3609H153.282V19.6785H168.546V26.3609H164.75L154.332 37.3624L165.558 49.5863H169.435V56.2687ZM176.649 12.0997V2.48359H185.452V12.0997H176.649ZM191.105 56.2687H171.722V49.5863H177.133V26.4424H171.399V19.6785H185.694V49.5863H191.105V56.2687ZM226.964 43.1484C226.587 46.4081 225.16 49.5591 222.684 52.6015C220.207 55.5896 216.223 57.0836 210.731 57.0836C205.562 57.0836 201.335 55.5081 198.051 52.357C194.82 49.206 193.205 44.6152 193.205 38.5848C193.205 32.663 194.874 27.9093 198.212 24.3236C201.604 20.7379 206.019 18.9451 211.457 18.9451C213.611 18.9451 215.765 19.2167 217.919 19.76C220.072 20.3033 222.199 21.1997 224.299 22.4493L225.753 32.7173L218.807 33.4507L217.596 27.4203C215.635 26.4498 213.48 25.9479 211.296 25.9534C205.266 25.9534 202.25 30.0281 202.25 38.1773C202.25 46.1093 205.346 50.0752 211.538 50.0752C216.061 50.0752 218.78 47.3045 219.695 41.763L226.964 43.1484ZM233.005 22.3678C235.697 21.0639 238.093 20.1675 240.193 19.6785C242.293 19.1896 244.716 18.9451 247.462 18.9451C251.5 18.9451 254.811 19.9773 257.396 22.0418C260.034 24.1063 261.353 27.203 261.353 31.3319V47.7934C261.353 49.9666 262.242 51.0531 264.018 51.0531C264.503 51.0531 265.122 50.9445 265.876 50.7272L265.957 55.5352C264.18 56.5675 262.242 57.0836 260.142 57.0836C255.565 57.0836 253.088 54.666 252.711 49.8307V49.6678C251.635 51.5693 250.1 53.2806 248.108 54.8018C246.17 56.323 243.747 57.0836 240.839 57.0836C238.309 57.0836 235.805 56.323 233.328 54.8018C230.905 53.2263 229.694 50.5099 229.694 46.6525C229.694 42.1433 231.471 39.1824 235.024 37.7699C238.578 36.303 242.427 35.5696 246.573 35.5696C247.596 35.5696 248.646 35.5967 249.723 35.651C250.8 35.7054 251.796 35.7869 252.711 35.8955V33.8582C252.711 31.6851 252.335 29.7293 251.581 27.9907C250.827 26.2522 248.942 25.383 245.927 25.383C244.797 25.383 243.72 25.4645 242.697 25.6275C241.728 25.7905 240.785 26.1164 239.87 26.6054L238.416 32.2284L231.471 31.4949L233.005 22.3678ZM252.711 41.763V40.4591C251.77 40.3474 250.827 40.2387 249.885 40.1331C248.892 40.0232 247.895 39.9688 246.896 39.9702C244.743 39.9702 242.804 40.3504 241.081 41.111C239.412 41.8716 238.578 43.3928 238.578 45.6746C238.578 48.9887 240.328 50.6457 243.827 50.6457C245.873 50.6457 247.812 49.9122 249.642 48.4454C251.473 46.9242 252.496 44.6967 252.711 41.763ZM286.557 56.2687H267.174V49.5863H272.585V6.88418H266.851V0.201797H281.146V49.5863H286.557V56.2687Z" fill="#FAFAFA" fill-opacity="0.639216"/>
<path d="M176.43 2.42537H185.564V12.1269H176.43V2.42537ZM9.61475 27.6493H20.191V32.5H9.61475V27.6493Z" fill="#76B6FF"/>
<path d="M22.5946 27.6493H33.1708V32.5H22.5946V27.6493Z" fill="#FAFAFA" fill-opacity="0.639216"/>
<path d="M35.5745 27.6493H39.9012V32.5H35.5745V27.6493ZM9.61475 35.4105H26.9213V40.2612H9.61475V35.4105ZM29.325 35.4105H39.9012V40.2612H29.325V35.4105Z" fill="#76B6FF"/>
<path d="M9.61475 43.1716H20.191V48.0224H9.61475V43.1716Z" fill="#FAFAFA" fill-opacity="0.639216"/>
<path d="M22.5946 43.1716H33.1708V48.0224H22.5946V43.1716Z" fill="#76B6FF"/>
<path d="M35.5746 43.1716H39.9012V48.0224H35.5746V43.1716Z" fill="#FAFAFA" fill-opacity="0.639216"/>
<path d="M0 17.9478H39.9012V22.7985H4.80737V52.8731H39.9012V57.7239H0V17.9478ZM56.727 17.9478H49.5159V22.7985H51.9196V52.8731H49.5159V57.7239H56.727V17.9478Z" fill="#FAFAFA" fill-opacity="0.639216"/>
<path d="M37.4974 15.5224V10.6716H52.4003V15.5224H47.1122V60.1493H52.4003V65H37.4974V60.1493H42.3048V15.5224H37.4974Z" fill="#FAFAFA" fill-opacity="0.639216"/>
</g>
<defs>
<clipPath id="clip0_110_3">
<rect width="287" height="65" fill="white"/>
</clipPath>
</defs>
</svg>
